Coordinates
version=1
nRows=10
nColumns=46
inDegrees=yes

Units are S.I. units (second, meters, Newtons, ...)
Angles are in degrees.

endheader
time	pelvis_tilt	pelvis_list	pelvis_rotation	pelvis_tx	pelvis_ty	pelvis_tz	bb_angle	bb_tx	bb_ty	bb_tz	hip_flexion_r	hip_adduction_r	hip_rotation_r	knee_angle_r	knee_angle_r_beta	ankle_angle_r	subtalar_angle_r	mtp_angle_r	crank_angle_r	hip_flexion_l	hip_adduction_l	hip_rotation_l	knee_angle_l	knee_angle_l_beta	ankle_angle_l	subtalar_angle_l	mtp_angle_l	crank_angle_l	lumbar_extension	lumbar_bending	lumbar_rotation	arm_flex_r	arm_add_r	arm_rot_r	elbow_flex_r	pro_sup_r	wrist_flex_r	wrist_dev_r	arm_flex_l	arm_add_l	arm_rot_l	elbow_flex_l	pro_sup_l	wrist_flex_l	wrist_dev_l
      0.00500000	    -39.18832943	      1.70317015	     -1.86647506	      0.06860776	      0.97025677	     -0.21023872	      0.00000000	      0.50000000	      0.00000000	      0.25000000	    101.05403642	     -8.57905539	     -4.04010847	     68.53199662	      1.19610898	     -5.18049105	     -5.51342678	      0.00000000	      0.00000000	     88.04948051	     -9.03777883	     -0.02558610	     90.73886699	      1.58369199	    -11.04768907	    -12.21936137	      0.00000000	      0.00000000	    -26.52519463	      0.90114950	     -0.61137448	     88.92725700	     -6.45456824	     44.35697298	     32.17890173	     39.12414575	      0.00000000	      0.00000000	     87.49173233	    -15.57247290	     46.93556741	     40.31488154	     41.25610757	      0.00000000	      0.00000000
      0.01000000	    -39.22564313	      1.59160860	     -1.87494118	      0.06868741	      0.97007762	     -0.21024027	      0.00000000	      0.50000000	      0.00000000	      0.25000000	    101.10989074	     -8.59530006	     -4.11851030	     68.64109492	      1.19801311	     -4.82639366	     -5.09103405	      0.00000000	      0.00000000	     88.08975427	     -9.07227029	      0.14788025	     90.75577407	      1.58398707	    -10.64707832	    -11.53855366	      0.00000000	      0.00000000	    -26.45791262	      1.00594475	     -0.55837695	     88.95691847	     -7.02161113	     45.90486894	     32.70188396	     39.60842394	      0.00000000	      0.00000000	     87.78040386	    -16.15066843	     49.24974380	     40.37228568	     41.93078616	      0.00000000	      0.00000000
      0.01500000	    -39.20894910	      1.60572194	     -1.90021065	      0.06879033	      0.97004689	     -0.21023398	      0.00000000	      0.50000000	      0.00000000	      0.25000000	    101.15790936	     -8.57944970	     -4.10019827	     68.75559051	      1.20001143	     -4.79626778	     -5.10100726	      0.00000000	      0.00000000	     88.03464055	     -9.11505588	      0.10126885	     90.69994860	      1.58301273	    -10.72156932	    -11.55652183	      0.00000000	      0.00000000	    -26.44268490	      0.99434734	     -0.54775267	     88.94333568	     -6.81511654	     45.79178045	     32.37862613	     39.68521560	      0.00000000	      0.00000000	     87.67053132	    -16.01880461	     48.83702739	     40.26529909	     42.00704948	      0.00000000	      0.00000000
      0.02000000	    -39.27368851	      1.58564837	     -1.93570381	      0.06871794	      0.97001956	     -0.21026901	      0.00000000	      0.50000000	      0.00000000	      0.25000000	    101.21905173	     -8.53562609	     -4.09015227	     68.75029623	      1.19991903	     -4.66149266	     -5.00093416	      0.00000000	      0.00000000	     88.03099038	     -9.15333146	      0.10928760	     90.59159195	      1.58112155	    -10.66286067	    -11.32550689	      0.00000000	      0.00000000	    -26.34914650	      1.02861955	     -0.54829368	     88.98726044	     -6.52221095	     45.58256041	     31.98375804	     38.89567436	      0.00000000	      0.00000000	     87.60934995	    -15.75693070	     48.14951911	     39.91520060	     41.77319588	      0.00000000	      0.00000000
      0.02500000	    -39.38963506	      1.32052187	     -2.02061036	      0.06854219	      0.96950173	     -0.21028154	      0.00000000	      0.50000000	      0.00000000	      0.25000000	    101.33612055	     -8.47849395	     -4.39608791	     68.81620867	      1.20106942	     -4.78196397	     -5.21489050	      0.00000000	      0.00000000	     88.17251331	     -9.21689602	      0.38535773	     90.54530665	      1.58031372	    -10.82979224	    -11.79553915	      0.00000000	      0.00000000	    -26.27330815	      1.29263675	     -0.33253665	     88.85877990	     -6.62223983	     44.74401708	     32.61240639	     39.18969321	      0.00000000	      0.00000000	     87.33142206	    -15.69782269	     47.17336233	     40.46345404	     41.91886399	      0.00000000	      0.00000000
      0.03000000	    -39.33360363	      1.43666495	     -2.05792536	      0.06858920	      0.96948902	     -0.21023219	      0.00000000	      0.50000000	      0.00000000	      0.25000000	    101.38593176	     -8.41745996	     -4.21380853	     68.95757988	      1.20353681	     -4.61086601	     -4.98031172	      0.00000000	      0.00000000	     88.01296194	     -9.23552686	      0.26871447	     90.47810504	      1.57914083	    -10.43795155	    -11.33200153	      0.00000000	      0.00000000	    -26.26083922	      1.14013270	     -0.30160934	     88.96998021	     -6.71709039	     46.01546004	     31.85773421	     39.43900785	      0.00000000	      0.00000000	     87.63822892	    -15.74447637	     48.44191854	     39.70498237	     42.16912169	      0.00000000	      0.00000000
      0.03500000	    -39.33425488	      1.44866992	     -2.06111180	      0.06858041	      0.96949729	     -0.21030533	      0.00000000	      0.50000000	      0.00000000	      0.25000000	    101.43330194	     -8.42592068	     -4.20048721	     69.03670979	      1.20491789	     -4.56382585	     -4.99670833	      0.00000000	      0.00000000	     87.95669412	     -9.20227040	      0.23738846	     90.38689030	      1.57754884	    -10.57817243	    -11.55997239	      0.00000000	      0.00000000	    -26.25844800	      1.13742896	     -0.32953991	     88.96217367	     -6.46087545	     45.42696575	     31.55447193	     39.86166703	      0.00000000	      0.00000000	     87.56206060	    -15.64192834	     47.74496625	     39.69358186	     42.38050188	      0.00000000	      0.00000000
      0.04000000	    -39.39440514	      1.33274308	     -2.08565235	      0.06850658	      0.96947838	     -0.21042351	      0.00000000	      0.50000000	      0.00000000	      0.25000000	    101.49040246	     -8.42425869	     -4.34161006	     69.04687908	      1.20509538	     -4.62789799	     -5.18820639	      0.00000000	      0.00000000	     88.00661003	     -9.21934515	      0.33382439	     90.29439288	      1.57593445	    -10.78139255	    -11.77533897	      0.00000000	      0.00000000	    -26.22714252	      1.29720452	     -0.21176443	     88.92241431	     -6.51740809	     45.06670684	     31.91580227	     40.09132150	      0.00000000	      0.00000000	     87.45151098	    -15.62340080	     47.51436038	     39.91465880	     42.53049668	      0.00000000	      0.00000000
      0.04500000	    -39.38217618	      1.37321721	     -2.12806126	      0.06859197	      0.96937284	     -0.21034571	      0.00000000	      0.50000000	      0.00000000	      0.25000000	    101.57585471	     -8.39416062	     -4.27904442	     69.22147017	      1.20814257	     -4.38745304	     -4.91306292	      0.00000000	      0.00000000	     87.92593145	     -9.26015829	      0.32576714	     90.25470940	      1.57524184	    -10.43358487	    -11.33326443	      0.00000000	      0.00000000	    -26.16611891	      1.21433554	     -0.20849860	     88.97159719	     -6.58543980	     45.92951093	     31.48312457	     40.13869234	      0.00000000	      0.00000000	     87.67530975	    -15.72235669	     48.59521384	     39.43535251	     42.66242752	      0.00000000	      0.00000000
      0.05000000	    -39.39950638	      1.33046462	     -2.13757793	      0.06860040	      0.96932387	     -0.21036974	      0.00000000	      0.50000000	      0.00000000	      0.25000000	    101.63224284	     -8.39420449	     -4.30448492	     69.29202034	      1.20937390	     -4.32535480	     -4.88482570	      0.00000000	      0.00000000	     87.91102704	     -9.26090689	      0.36258992	     90.18736986	      1.57406655	    -10.47836855	    -11.40898518	      0.00000000	      0.00000000	    -26.14032773	      1.26902815	     -0.19077513	     88.97103048	     -6.67767534	     46.23457602	     31.57960311	     40.29294492	      0.00000000	      0.00000000	     87.66227879	    -15.76561778	     48.74273629	     39.47495758	     42.80445848	      0.00000000	      0.00000000
